<svg xmlns="http://www.w3.org/2000/svg" viewBox="0 0 200 200">
  <!-- Gradients and Filters -->
  <defs>
    <linearGradient id="cameraBody" x1="0%" y1="0%" x2="100%" y2="100%">
      <stop offset="0%" stop-color="#333"/>
      <stop offset="100%" stop-color="#111"/>
    </linearGradient>
    <linearGradient id="lens" x1="0%" y1="0%" x2="100%" y2="100%">
      <stop offset="0%" stop-color="#444"/>
      <stop offset="100%" stop-color="#222"/>
    </linearGradient>
    <linearGradient id="metallic" x1="0%" y1="0%" x2="100%" y2="100%">
      <stop offset="0%" stop-color="#777"/>
      <stop offset="50%" stop-color="#555"/>
      <stop offset="100%" stop-color="#333"/>
    </linearGradient>
    <linearGradient id="redAccent" x1="0%" y1="0%" x2="100%" y2="100%">
      <stop offset="0%" stop-color="#b91421"/>
      <stop offset="100%" stop-color="#7d0e17"/>
    </linearGradient>
    <filter id="shadow" x="-20%" y="-20%" width="140%" height="140%">
      <feGaussianBlur stdDeviation="2" result="blur"/>
      <feComposite in="SourceGraphic" in2="blur" operator="over"/>
    </filter>
    <filter id="gloss" x="-10%" y="-10%" width="120%" height="120%">
      <feGaussianBlur stdDeviation="1" result="blur"/>
      <feSpecularLighting result="spec" specularExponent="20" lighting-color="#fff">
        <fePointLight x="100" y="50" z="150"/>
      </feSpecularLighting>
      <feComposite in="SourceGraphic" in2="spec" operator="arithmetic" k1="0" k2="1" k3="1" k4="0"/>
    </filter>
  </defs>

  <!-- Shadow under camera -->
  <ellipse cx="100" cy="185" rx="50" ry="8" opacity="0.3" fill="#000"/>
  
  <!-- Camera Body - Main Shell -->
  <path d="M40,70 
           C40,65 45,60 50,60
           L150,60
           C155,60 160,65 160,70
           L160,135
           C160,140 155,145 150,145
           L50,145
           C45,145 40,140 40,135
           Z" 
        fill="url(#cameraBody)" stroke="#444" stroke-width="1"/>
  
  <!-- Top plate with rounded corners -->
  <path d="M35,70 
           C35,60 45,55 50,55
           L150,55
           C155,55 165,60 165,70
           L160,70 
           C160,65 155,60 150,60
           L50,60
           C45,60 40,65 40,70
           Z" 
        fill="url(#metallic)" stroke="#444" stroke-width="0.5"/>
  
  <!-- Camera Handle (Right Side) -->
  <path d="M160,80 
           L170,85
           C175,90 175,110 170,115
           L160,120
           Z" 
        fill="url(#cameraBody)" stroke="#444" stroke-width="0.5"/>
  
  <!-- Lens Mount - Front Plate -->
  <path d="M40,90 
           L30,95
           C25,100 25,120 30,125
           L40,130
           Z" 
        fill="url(#metallic)" stroke="#444" stroke-width="0.5"/>
  
  <!-- Lens Base -->
  <ellipse cx="35" cy="110" rx="20" ry="20" fill="url(#metallic)" stroke="#444" stroke-width="0.5"/>
  
  <!-- Lens Body -->
  <path d="M35,95 
           C25,95 10,100 10,110
           C10,120 25,125 35,125
           Z" 
        fill="url(#lens)" stroke="#444" stroke-width="0.5"/>
  
  <!-- Lens Elements -->
  <ellipse cx="15" cy="110" rx="7" ry="7" fill="#111" stroke="#222" stroke-width="0.5"/>
  <ellipse cx="15" cy="110" rx="5" ry="5" fill="#000" stroke="#222" stroke-width="0.3"/>
  <ellipse cx="15" cy="110" rx="2" ry="2" fill="#444" opacity="0.5"/>
  
  <!-- Focus Rings -->
  <path d="M35,100 
           C27,100 15,102 15,110
           C15,118 27,120 35,120
           Z" 
        fill="none" stroke="#444" stroke-width="0.5" stroke-dasharray="2,1"/>
  <path d="M30,105 
           C25,105 20,107 20,110
           C20,113 25,115 30,115
           Z" 
        fill="none" stroke="#444" stroke-width="0.5" stroke-dasharray="1,1"/>
  
  <!-- Viewfinder -->
  <rect x="90" y="50" width="30" height="15" rx="3" fill="url(#metallic)" stroke="#444" stroke-width="0.5"/>
  <ellipse cx="105" cy="57.5" rx="10" ry="7" fill="#000" stroke="#333" stroke-width="0.3"/>
  <ellipse cx="105" cy="57.5" rx="8" ry="5" fill="#111"/>
  
  <!-- Controls on Top -->
  <!-- Dial 1 -->
  <circle cx="65" cy="57.5" r="7" fill="url(#metallic)" stroke="#444" stroke-width="0.5"/>
  <circle cx="65" cy="57.5" r="5" fill="#222" stroke="#444" stroke-width="0.3"/>
  <line x1="65" y1="57.5" x2="68" y2="54.5" stroke="#666" stroke-width="0.5"/>
  
  <!-- Dial 2 -->
  <circle cx="145" cy="57.5" r="7" fill="url(#metallic)" stroke="#444" stroke-width="0.5"/>
  <circle cx="145" cy="57.5" r="5" fill="#222" stroke="#444" stroke-width="0.3"/>
  <line x1="145" y1="57.5" x2="148" y2="54.5" stroke="#666" stroke-width="0.5"/>
  
  <!-- Record Button -->
  <circle cx="165" cy="95" r="5" fill="url(#redAccent)" stroke="#444" stroke-width="0.5" filter="url(#gloss)"/>
  
  <!-- Front Details -->
  <!-- Logo Plate -->
  <rect x="60" y="70" width="40" height="10" rx="2" fill="url(#metallic)" stroke="#444" stroke-width="0.3"/>
  <text x="80" y="77" font-family="Arial" font-size="5" fill="#ccc" text-anchor="middle">GREY18</text>
  
  <!-- Front Display -->
  <rect x="110" y="70" width="30" height="15" rx="2" fill="#001122" stroke="#444" stroke-width="0.3"/>
  <rect x="112" y="72" width="26" height="11" rx="1" fill="#002244"/>
  <text x="125" y="79" font-family="Arial" font-size="3" fill="#00ccff" text-anchor="middle">24 FPS</text>
  
  <!-- Film Reel Mechanism -->
  <path d="M60,120 
           C60,118 62,115 65,115
           L95,115
           C98,115 100,118 100,120
           L100,140
           C100,143 98,145 95,145
           L65,145
           C62,145 60,143 60,140
           Z" 
        fill="url(#metallic)" stroke="#444" stroke-width="0.5"/>
  
  <!-- Film Reels -->
  <circle cx="70" cy="130" r="10" fill="#222" stroke="#444" stroke-width="0.5"/>
  <circle cx="70" cy="130" r="3" fill="#111" stroke="#333" stroke-width="0.3"/>
  <circle cx="70" cy="130" r="7" fill="none" stroke="#333" stroke-width="0.3" stroke-dasharray="2,2"/>
  
  <circle cx="90" cy="130" r="10" fill="#222" stroke="#444" stroke-width="0.5"/>
  <circle cx="90" cy="130" r="3" fill="#111" stroke="#333" stroke-width="0.3"/>
  <circle cx="90" cy="130" r="7" fill="none" stroke="#333" stroke-width="0.3" stroke-dasharray="2,2"/>
  
  <!-- Side Lever -->
  <path d="M120,130 L135,130 L140,135 L135,140 L120,140 Z" fill="url(#metallic)" stroke="#444" stroke-width="0.5"/>
  <circle cx="127" cy="135" r="3" fill="#222" stroke="#444" stroke-width="0.3"/>
  
  <!-- Side Ports -->
  <rect x="140" y="125" width="15" height="10" rx="2" fill="#111" stroke="#444" stroke-width="0.3"/>
  <rect x="142" y="127" width="5" height="6" rx="1" fill="#000"/>
  <rect x="149" y="127" width="4" height="6" rx="1" fill="#000"/>
  
  <!-- Bottom Plate -->
  <path d="M40,145 
           L160,145
           C155,150 45,150 40,145
           Z" 
        fill="url(#metallic)" stroke="#444" stroke-width="0.5"/>
  
  <!-- Tripod Socket -->
  <rect x="95" y="146" width="10" height="6" rx="1" fill="#111" stroke="#444" stroke-width="0.3"/>
  <circle cx="100" cy="149" r="2" fill="#000" stroke="#333" stroke-width="0.3"/>
  
  <!-- Camera Strap Hooks -->
  <path d="M45,60 L45,55 L50,50 L55,55 L55,60" fill="none" stroke="#444" stroke-width="1"/>
  <path d="M145,60 L145,55 L150,50 L155,55 L155,60" fill="none" stroke="#444" stroke-width="1"/>
  
  <!-- Detail Lines -->
  <line x1="50" y1="110" x2="150" y2="110" stroke="#222" stroke-width="0.5" stroke-dasharray="3,3"/>
  <line x1="50" y1="80" x2="150" y2="80" stroke="#222" stroke-width="0.5"/>
  <line x1="50" y1="95" x2="150" y2="95" stroke="#222" stroke-width="0.5"/>
  <line x1="110" y1="80" x2="110" y2="95" stroke="#222" stroke-width="0.5"/>
  
  <!-- Microphone -->
  <circle cx="130" cy="57.5" r="2" fill="#111" stroke="#444" stroke-width="0.3"/>
  <circle cx="130" cy="57.5" r="1" fill="#000"/>
  
  <!-- Battery Access -->
  <rect x="70" y="85" width="20" height="5" rx="1" fill="#111" stroke="#444" stroke-width="0.3"/>
</svg> 