<svg xmlns="http://www.w3.org/2000/svg" viewBox="0 0 1000 700">
  <!-- Dark Background -->
  <rect width="1000" height="700" fill="#0a0a0a"/>
  
  <!-- Storyboard Grid -->
  <g stroke="#333" stroke-width="1" opacity="0.4">
    <!-- Horizontal Lines -->
    <line x1="0" y1="100" x2="1000" y2="100"/>
    <line x1="0" y1="200" x2="1000" y2="200"/>
    <line x1="0" y1="300" x2="1000" y2="300"/>
    <line x1="0" y1="400" x2="1000" y2="400"/>
    <line x1="0" y1="500" x2="1000" y2="500"/>
    <line x1="0" y1="600" x2="1000" y2="600"/>
    
    <!-- Vertical Lines -->
    <line x1="100" y1="0" x2="100" y2="700"/>
    <line x1="200" y1="0" x2="200" y2="700"/>
    <line x1="300" y1="0" x2="300" y2="700"/>
    <line x1="400" y1="0" x2="400" y2="700"/>
    <line x1="500" y1="0" x2="500" y2="700"/>
    <line x1="600" y1="0" x2="600" y2="700"/>
    <line x1="700" y1="0" x2="700" y2="700"/>
    <line x1="800" y1="0" x2="800" y2="700"/>
    <line x1="900" y1="0" x2="900" y2="700"/>
  </g>
  
  <!-- Film strips -->
  <g opacity="0.2">
    <rect x="0" y="50" width="1000" height="10" fill="#fff"/>
    <rect x="0" y="650" width="1000" height="10" fill="#fff"/>
    
    <!-- Perforation holes -->
    <g fill="#0a0a0a">
      <circle cx="50" cy="55" r="5"/>
      <circle cx="150" cy="55" r="5"/>
      <circle cx="250" cy="55" r="5"/>
      <circle cx="350" cy="55" r="5"/>
      <circle cx="450" cy="55" r="5"/>
      <circle cx="550" cy="55" r="5"/>
      <circle cx="650" cy="55" r="5"/>
      <circle cx="750" cy="55" r="5"/>
      <circle cx="850" cy="55" r="5"/>
      <circle cx="950" cy="55" r="5"/>
      
      <circle cx="50" cy="655" r="5"/>
      <circle cx="150" cy="655" r="5"/>
      <circle cx="250" cy="655" r="5"/>
      <circle cx="350" cy="655" r="5"/>
      <circle cx="450" cy="655" r="5"/>
      <circle cx="550" cy="655" r="5"/>
      <circle cx="650" cy="655" r="5"/>
      <circle cx="750" cy="655" r="5"/>
      <circle cx="850" cy="655" r="5"/>
      <circle cx="950" cy="655" r="5"/>
    </g>
  </g>
  
  <!-- Light beams -->
  <g opacity="0.15">
    <path d="M200,0 L400,700" stroke="#fff" stroke-width="100" fill="none"/>
    <path d="M800,0 L600,700" stroke="#fff" stroke-width="100" fill="none"/>
  </g>
  
  <!-- Storyboard frames -->
  <g fill="#222" stroke="#444" stroke-width="2" opacity="0.5">
    <rect x="120" y="120" width="160" height="120"/>
    <rect x="320" y="120" width="160" height="120"/>
    <rect x="520" y="120" width="160" height="120"/>
    <rect x="720" y="120" width="160" height="120"/>
    
    <rect x="120" y="320" width="160" height="120"/>
    <rect x="320" y="320" width="160" height="120"/>
    <rect x="520" y="320" width="160" height="120"/>
    <rect x="720" y="320" width="160" height="120"/>
    
    <rect x="120" y="520" width="160" height="120"/>
    <rect x="320" y="520" width="160" height="120"/>
    <rect x="520" y="520" width="160" height="120"/>
    <rect x="720" y="520" width="160" height="120"/>
  </g>
  
  <!-- Center light focus -->
  <radialGradient id="centerGlow" cx="50%" cy="50%" r="50%" fx="50%" fy="50%">
    <stop offset="0%" stop-color="#fff" stop-opacity="0.1"/>
    <stop offset="100%" stop-color="#000" stop-opacity="0"/>
  </radialGradient>
  <circle cx="500" cy="350" r="200" fill="url(#centerGlow)"/>
  
  <!-- Add some noise texture -->
  <filter id="noise">
    <feTurbulence type="fractalNoise" baseFrequency="0.65" numOctaves="3" stitchTiles="stitch"/>
    <feColorMatrix type="matrix" values="0 0 0 0 0, 0 0 0 0 0, 0 0 0 0 0, 0 0 0 0.03 0"/>
  </filter>
  <rect width="1000" height="700" filter="url(#noise)" opacity="0.4"/>
</svg> 